<svg id="Capa_1" enable-background="new 0 0 512 512" height="512" viewBox="0 0 512 512" width="512" xmlns="http://www.w3.org/2000/svg"><g><g><path d="m461.596 512c-8.284 0-15-6.716-15-15v-167c0-16.542-13.458-30-30-30s-30 13.458-30 30v122c0 33.084-26.916 60-60 60s-60-26.916-60-60v-47c0-8.284 6.716-15 15-15s15 6.716 15 15v47c0 16.542 13.458 30 30 30s30-13.458 30-30v-122c0-33.084 26.916-60 60-60s60 26.916 60 60v167c0 8.284-6.716 15-15 15z" fill="#e1d3ce"/></g><path d="m351.966 177.55-25.46 229.11c-.85 7.59-7.27 13.34-14.91 13.34h-60c-7.64 0-14.06-5.75-14.91-13.34l-25.46-229.11c-.91-8.24 5.02-15.65 13.26-16.57h114.22c8.24.92 14.17 8.33 13.26 16.57z" fill="#b5efff"/><path d="m351.966 177.55-25.46 229.11c-.85 7.59-7.27 13.34-14.91 13.34h-30v-259.02h57.11c8.24.92 14.17 8.33 13.26 16.57z" fill="#80dbff"/><g><path d="m154.626 223.18c-14.33-14.33-36.01-16.96-53.03-7.87-17.02-9.09-38.7-6.46-53.03 7.87-17.55 17.55-17.55 46.09 0 63.64l42.42 42.43c2.93 2.93 6.77 4.39 10.61 4.39s7.68-1.46 10.61-4.39l42.42-42.43c17.55-17.57 17.54-46.08 0-63.64z" fill="#ff6e7c"/></g><path d="m154.626 286.82-42.42 42.43c-2.93 2.93-6.77 4.39-10.61 4.39v-118.33c17.02-9.09 38.7-6.46 53.03 7.87 17.54 17.56 17.55 46.07 0 63.64z" fill="#ff468c"/><g><path d="m281.596 0c-57.9 0-105 47.1-105 105s47.1 105 105 105 105-47.1 105-105-47.1-105-105-105z" fill="#efe2dd"/></g><path d="m386.596 105c0 57.9-47.1 105-105 105v-210c57.9 0 105 47.1 105 105z" fill="#e1d3ce"/><g><path d="m416.596 105c0 8.28-6.72 15-15 15h-240c-8.28 0-15-6.72-15-15s6.72-15 15-15h240c8.28 0 15 6.72 15 15z" fill="#fff5f5"/></g><path d="m416.596 105c0 8.28-6.72 15-15 15h-120v-30h120c8.28 0 15 6.72 15 15z" fill="#efe2dd"/></g></svg>